<svg width="122px" height="16px" viewBox="0 0 122 16" version="1.1" xmlns="http://www.w3.org/2000/svg" xmlns:xlink="http://www.w3.org/1999/xlink">
<title>translated by Google</title> 
<g fill="#757575">
<path d="M2.3,4.1v1.5h1.2v0.8H2.3v3.9c0,0.3,0.1,0.4,0.2,0.6s0.3,0.2,0.5,0.2c0.1,0,0.3,0,0.5-0.1v1c-0.3,0.1-0.6,0.1-0.8,0.1c-0.5,0-0.8-0.1-1.1-0.4S1.2,11,1.2,10.4V6.5H0.1V5.7h1.2V4.1H2.3z"/>
<path d="M7.8,6.6c-0.2,0-0.3,0-0.5,0c-0.7,0-1.2,0.3-1.4,0.9V12H4.7V5.7h1.1v0.7c0.4-0.6,0.9-0.8,1.5-0.8c0.2,0,0.4,0,0.5,0.1C7.8,5.7,7.8,6.6,7.8,6.6z"/>
<path d="M12.5,12c-0.1-0.1-0.1-0.3-0.2-0.7c-0.5,0.5-1.1,0.8-1.8,0.8c-0.6,0-1.1-0.2-1.5-0.5s-0.6-0.8-0.6-1.3c0-0.7,0.3-1.2,0.8-1.5s1.2-0.5,2.1-0.5h1.1V7.7c0-0.4-0.1-0.7-0.3-0.9s-0.6-0.3-1-0.3s-0.7,0.1-1,0.3S9.7,7.1,9.7,7.4H8.6c0-0.3,0.1-0.6,0.3-0.9S9.4,6,9.8,5.8s0.8-0.3,1.3-0.3c0.7,0,1.3,0.2,1.7,0.5s0.6,0.9,0.6,1.5v2.9c0,0.6,0.1,1,0.2,1.4V12H12.5zM10.7,11.2c0.3,0,0.7-0.1,1-0.3s0.5-0.4,0.7-0.7V8.9h-0.8c-1.3,0-2,0.4-2,1.2c0,0.3,0.1,0.6,0.3,0.8S10.4,11.2,10.7,11.2z"/>
<path d="M16.2,5.7v0.8c0.5-0.6,1.1-0.9,1.9-0.9c1.3,0,2,0.8,2,2.3V12H19V7.8c0-0.5-0.1-0.8-0.3-1s-0.5-0.3-1-0.3c-0.4,0-0.7,0.1-0.9,0.3s-0.5,0.4-0.6,0.7V12h-1.1V5.7H16.2z"/>
<path d="M25.5,10.3c0-0.3-0.1-0.5-0.3-0.7S24.5,9.3,24,9.2S23,9,22.7,8.8S22.1,8.4,22,8.2s-0.2-0.5-0.2-0.8c0-0.5,0.2-1,0.7-1.3s1-0.5,1.7-0.5s1.3,0.2,1.7,0.6s0.7,0.8,0.7,1.4h-1.1c0-0.3-0.1-0.6-0.4-0.8s-0.6-0.3-1-0.3s-0.7,0.1-0.9,0.3s-0.3,0.4-0.3,0.7c0,0.3,0.1,0.5,0.3,0.6s0.6,0.3,1.1,0.4s1,0.3,1.3,0.4s0.6,0.4,0.7,0.6s0.2,0.5,0.2,0.9c0,0.6-0.2,1-0.7,1.4s-1,0.5-1.8,0.5c-0.5,0-1-0.1-1.3-0.3s-0.7-0.4-0.9-0.8s-0.3-0.7-0.3-1h1.1c0,0.4,0.2,0.7,0.4,0.9s0.6,0.3,1.1,0.3c0.4,0,0.7-0.1,1-0.2S25.5,10.6,25.5,10.3z"/>
<path d="M29.1,12H28V3h1.1V12z"/>
<path d="M34.8,12c-0.1-0.1-0.1-0.3-0.2-0.7c-0.5,0.5-1.1,0.8-1.8,0.8c-0.6,0-1.1-0.2-1.5-0.5s-0.6-0.8-0.6-1.3c0-0.7,0.3-1.2,0.8-1.5s1.2-0.5,2.1-0.5h1.1V7.7c0-0.4-0.1-0.7-0.3-0.9s-0.6-0.3-1-0.3s-0.7,0.1-1,0.3S32,7.2,32,7.5h-1.1c0-0.3,0.1-0.6,0.3-0.9s0.5-0.5,0.9-0.7s0.8-0.3,1.3-0.3c0.7,0,1.3,0.2,1.7,0.5s0.6,0.9,0.6,1.5v2.9c0,0.6,0.1,1,0.2,1.4V12H34.8zM33,11.2c0.3,0,0.7-0.1,1-0.3s0.5-0.4,0.7-0.7V8.9h-0.8c-1.3,0-2,0.4-2,1.2c0,0.3,0.1,0.6,0.3,0.8S32.6,11.2,33,11.2z"/>
<path d="M38.9,4.1v1.5H40v0.8h-1.2v3.9c0,0.3,0.1,0.4,0.2,0.6s0.3,0.2,0.5,0.2c0.1,0,0.3,0,0.5-0.1v1c-0.3,0.1-0.6,0.1-0.8,0.1c-0.5,0-0.8-0.1-1.1-0.4s-0.4-0.7-0.4-1.2v-4h-1.2V5.7h1.2V4.1H38.9z"/>
<path d="M43.9,12.1c-0.9,0-1.6-0.3-2.1-0.8S41,10,41,9V8.8c0-0.6,0.1-1.2,0.4-1.7s0.6-0.9,1-1.2s0.9-0.4,1.4-0.4c0.8,0,1.5,0.3,1.9,0.8s0.7,1.3,0.7,2.3v0.5h-4.3c0,0.6,0.2,1.1,0.5,1.5s0.8,0.6,1.3,0.6c0.4,0,0.7-0.1,1-0.2s0.5-0.4,0.7-0.6l0.7,0.5C45.8,11.7,45,12.1,43.9,12.1z M43.8,6.4c-0.4,0-0.8,0.2-1.1,0.5s-0.5,0.8-0.6,1.3h3.2l0,0c0-0.6-0.2-1-0.4-1.3S44.3,6.4,43.8,6.4z"/>
<path d="M47.4,8.8c0-1,0.2-1.8,0.7-2.3s1.1-0.9,1.8-0.9s1.3,0.3,1.8,0.8V3h1.1v9h-1l-0.1-0.7c-0.4,0.5-1,0.8-1.8,0.8c-0.7,0-1.3-0.3-1.8-0.9S47.4,9.8,47.4,8.8L47.4,8.8z M48.5,8.9c0,0.7,0.1,1.3,0.4,1.7s0.7,0.6,1.2,0.6c0.7,0,1.2-0.3,1.5-0.9V7.4c-0.3-0.6-0.8-0.9-1.5-0.9c-0.5,0-0.9,0.2-1.2,0.6S48.5,8.1,48.5,8.9z"/>
<path d="M62.8,8.9c0,1-0.2,1.7-0.7,2.3s-1,0.9-1.8,0.9s-1.4-0.3-1.9-0.8l0,0.7h-1V3h1.1v3.4c0.4-0.5,1-0.8,1.8-0.8s1.4,0.3,1.8,0.9S62.8,7.8,62.8,8.9L62.8,8.9z M61.7,8.8c0-0.7-0.1-1.3-0.4-1.7S60.6,6.5,60,6.5c-0.7,0-1.2,0.3-1.5,1v2.7c0.3,0.7,0.8,1,1.6,1c0.5,0,0.9-0.2,1.2-0.6S61.7,9.6,61.7,8.8z"/>
<path d="M66.2,10.4l1.5-4.8h1.2L66.2,13c-0.4,1.1-1,1.6-1.9,1.6h-0.2l-0.4-0.1v-0.9H64c0.4,0,0.7-0.1,0.9-0.2s0.4-0.4,0.5-0.8l0.2-0.6l-2.3-6.3h1.2L66.2,10.4z"/>
<path d="M79.2,5.6v1.6h3.9c-0.1,0.9-0.4,1.6-0.9,2.1c-0.6,0.6-1.5,1.2-3,1.2c-2.4,0-4.3-1.9-4.3-4.4s1.9-4.4,4.3-4.4c1.3,0,2.3,0.5,3,1.2l1.2-1.2c-1.1-0.9-2.4-1.6-4.2-1.6c-3.3,0-6.1,2.7-6.1,6s2.8,6,6.1,6c1.8,0,3.1-0.6,4.2-1.7s1.4-2.6,1.4-3.8c0-0.4,0-0.7-0.1-1H79.2"/>
<path d="M89.7,4.2c-2.1,0-3.9,1.6-3.9,3.9c0,2.2,1.7,3.9,3.9,3.9c2.1,0,3.9-1.6,3.9-3.9C93.6,5.9,91.8,4.2,89.7,4.2L89.7,4.2z M89.7,10.4c-1.2,0-2.2-1-2.2-2.3c0-1.4,1-2.3,2.2-2.3c1.2,0,2.2,1,2.2,2.3C91.9,9.5,90.8,10.4,89.7,10.4L89.7,10.4z"/>
<path d="M108.7,5.1L108.7,5.1c-0.4-0.5-1.2-0.9-2.1-0.9c-1.9,0-3.6,1.7-3.6,3.9s1.7,3.9,3.6,3.9c0.9,0,1.7-0.4,2-0.9h0.1v0.5c0,1.5-0.8,2.3-2.1,2.3c-1,0-1.7-0.7-2-1.4l-1.4,0.6c0.4,1,1.6,2.3,3.4,2.3c2,0,3.7-1.2,3.7-4v-7h-1.6L108.7,5.1L108.7,5.1z M106.8,10.4c-1.2,0-2.1-1-2.1-2.3c0-1.4,0.9-2.3,2.1-2.3c1.2,0,2.1,1,2.1,2.4C108.8,9.5,107.9,10.4,106.8,10.4L106.8,10.4z"/>
<path d="M98.3,4.2c-2.1,0-3.9,1.6-3.9,3.9c0,2.2,1.7,3.9,3.9,3.9c2.1,0,3.9-1.6,3.9-3.9C102.2,5.9,100.5,4.2,98.3,4.2L98.3,4.2z M98.3,10.4c-1.2,0-2.2-1-2.2-2.3c0-1.4,1-2.3,2.2-2.3c1.2,0,2.2,1,2.2,2.3C100.5,9.5,99.5,10.4,98.3,10.4L98.3,10.4z"/>
<path d="M111.7,0.3h1.7V12h-1.7V0.3z"/>
<path d="M118.5,10.4c-0.9,0-1.5-0.4-1.9-1.2l5.2-2.1l-0.2-0.4c-0.3-0.9-1.3-2.5-3.3-2.5s-3.7,1.6-3.7,3.9c0,2.2,1.6,3.9,3.8,3.9c1.8,0,2.8-1.1,3.2-1.7l-1.3-0.9C120,10,119.4,10.4,118.5,10.4L118.5,10.4z M118.4,5.7c0.7,0,1.3,0.4,1.5,0.9L116.4,8C116.4,6.3,117.5,5.7,118.4,5.7L118.4,5.7z"/>
</g>
</svg>
